<?xml version="1.0" standalone="no"?>
<!DOCTYPE svg PUBLIC "-//W3C//DTD SVG 20010904//EN"
 "http://www.w3.org/TR/2001/REC-SVG-20010904/DTD/svg10.dtd">
<svg version="1.0" xmlns="http://www.w3.org/2000/svg"
 width="282.000000pt" height="128.000000pt" viewBox="0 0 282.000000 128.000000"
 preserveAspectRatio="xMidYMid meet">

<g transform="translate(0.000000,128.000000) scale(0.100000,-0.100000)"
fill="#0070F2" stroke="none">
<path d="M2100 1146 l0 -114 -50 -4 c-28 -1 -63 1 -78 5 -49 14 -204 9 -251
-8 -84 -30 -137 -89 -143 -160 l-3 -27 -15 23 c-64 99 -171 167 -280 179 -145
16 -272 -24 -357 -112 -41 -42 -83 -122 -83 -158 0 -29 -18 -33 -53 -12 -17
11 -58 28 -89 37 -32 9 -67 24 -80 34 -19 16 -20 21 -9 35 17 20 100 21 155 1
22 -8 43 -12 48 -9 9 6 68 122 68 134 0 5 -26 18 -57 30 -43 16 -83 22 -154
23 -92 2 -100 0 -165 -33 -58 -29 -73 -42 -91 -80 -26 -51 -30 -127 -9 -168
21 -41 84 -87 169 -123 42 -18 79 -39 81 -46 12 -31 -16 -53 -71 -53 -12 0
-51 16 -86 34 l-65 35 -41 -69 c-23 -38 -41 -73 -41 -79 0 -18 51 -50 117 -72
87 -29 222 -24 301 10 48 22 104 71 114 102 3 10 21 -1 56 -32 76 -68 152 -94
277 -94 81 0 112 4 163 24 127 48 211 159 215 283 l2 65 45 -38 c25 -21 77
-51 115 -67 76 -31 96 -52 79 -79 -20 -33 -78 -28 -149 11 l-64 35 -46 -75
-45 -75 22 -19 c54 -46 127 -65 243 -65 98 0 116 3 167 27 83 38 113 88 113
184 0 66 -3 76 -31 111 -36 45 -89 77 -161 99 -64 19 -99 45 -90 67 8 22 97
23 154 3 22 -8 47 -14 54 -14 8 1 33 0 55 0 l42 -2 4 -162 c4 -141 7 -168 25
-203 41 -77 105 -115 196 -115 60 0 146 26 154 46 3 7 -5 40 -16 74 -12 33
-21 67 -21 74 0 22 -15 27 -43 17 -18 -7 -30 -6 -46 5 -19 14 -21 24 -21 139
l0 124 63 3 62 3 3 88 3 87 -66 0 -65 0 0 115 0 115 -115 0 -115 0 0 -114z
m-809 -319 c122 -81 65 -264 -81 -261 -81 2 -133 59 -134 144 0 111 123 179
215 117z"/>
<path d="M1136 739 c-21 -17 -24 -24 -16 -40 11 -20 40 -27 40 -9 0 15 22 12
59 -6 40 -20 73 -12 91 21 18 34 1 53 -33 38 -17 -8 -29 -7 -48 3 -34 19 -62
17 -93 -7z"/>
<path d="M0 225 c0 -9 9 -15 25 -15 24 0 25 -2 25 -76 0 -66 2 -75 18 -72 14
3 18 16 20 76 3 70 4 72 28 72 16 0 24 5 22 13 -3 7 -29 13 -71 15 -55 2 -67
0 -67 -13z"/>
<path d="M910 150 c0 -72 3 -90 14 -90 11 0 16 14 18 47 3 41 6 48 26 51 20 3
22 0 22 -48 0 -44 3 -51 18 -48 14 3 17 14 16 57 -2 61 -12 74 -54 73 -25 -1
-30 3 -30 24 0 15 -6 24 -15 24 -12 0 -15 -17 -15 -90z"/>
<path d="M1830 150 c0 -73 3 -90 15 -90 12 0 15 17 15 90 0 73 -3 90 -15 90
-12 0 -15 -17 -15 -90z"/>
<path d="M337 179 c-27 -21 -36 -69 -19 -96 13 -21 60 -33 88 -23 35 14 25 36
-14 32 -17 -2 -37 0 -44 5 -8 5 6 10 37 13 41 4 51 9 53 26 3 22 -21 48 -54
58 -14 4 -30 -1 -47 -15z m63 -29 c0 -4 -11 -7 -25 -7 -26 0 -34 12 -12 20 15
5 37 -2 37 -13z"/>
<path d="M635 175 c-56 -55 -2 -142 70 -115 37 14 30 30 -14 30 -42 0 -57 17
-46 51 5 14 16 19 46 19 42 0 51 13 20 30 -30 16 -50 12 -76 -15z"/>
<path d="M1288 195 c-2 -3 -20 -6 -39 -8 l-34 -2 -3 -63 c-2 -51 0 -62 13 -62
8 0 15 6 16 13 0 6 2 26 2 42 3 40 13 54 37 48 17 -4 20 -14 20 -54 0 -37 4
-49 15 -49 22 0 21 103 -1 124 -17 18 -18 18 -26 11z"/>
<path d="M1553 190 c-69 -28 -48 -133 27 -133 59 0 91 67 53 111 -22 25 -51
33 -80 22z m51 -36 c20 -19 20 -38 1 -57 -17 -18 -51 -12 -60 10 -8 23 3 51
23 56 9 3 18 5 19 6 1 0 9 -6 17 -15z"/>
<path d="M2066 174 c-17 -16 -21 -70 -8 -91 26 -40 103 -30 122 17 12 29 2 65
-24 82 -19 13 -74 8 -90 -8z m84 -49 c0 -29 -28 -47 -53 -34 -40 23 -6 90 35
68 10 -5 18 -21 18 -34z"/>
<path d="M2370 171 c-30 -56 -2 -116 54 -114 20 1 33 -3 30 -8 -3 -5 -23 -9
-45 -9 -40 0 -52 -13 -23 -24 29 -11 72 -6 88 10 12 11 16 36 16 90 l0 74 -55
0 c-43 0 -56 -4 -65 -19z m90 -46 c0 -31 -35 -52 -56 -34 -19 16 -18 56 3 68
25 13 53 -5 53 -34z"/>
<path d="M2680 135 c0 -46 4 -57 24 -70 13 -8 31 -13 40 -9 9 3 16 1 16 -5 0
-6 -16 -11 -35 -11 -24 0 -35 -5 -35 -15 0 -11 11 -15 40 -15 55 0 72 27 68
111 -2 39 -8 64 -15 67 -9 2 -13 -10 -13 -40 0 -52 -14 -72 -42 -57 -13 7 -18
21 -18 54 0 33 -4 45 -15 45 -12 0 -15 -13 -15 -55z"/>
</g>
</svg>
